# xmcd
#
# Track frame offsets: 
#        150
#        10998
#        22989
#        36446
#        51273
#        63442
#        73013
#        86406
#        98222
#        109139
#        120824
#        132918
#        147618
#        157862
#
# Disc length: 2271 seconds
#
# Revision: 0
# Processed by: cddbd v1.5.2PL0 Copyright (c) Steve Scherf et al.
# Submitted via: ExactAudioCopyFreeDBPlugin 1.0
#
DISCID=b908dd0e
DTITLE=Frank Sinatra - Hello Frank - Jeepers Creepers
DYEAR=2015
DGENRE=Blues
TTITLE0=JEEPERS CREEPERS
TTITLE1=THE GIRL NEXT DOOR
TTITLE2=BLAME IT ON MY MOUTH
TTITLE3=I'LL NEVER LET A DAY PASS BY
TTITLE4=ALMOST LIKE BEING IN LOVE
TTITLE5=AREN'T YOU GLAD YOU'RE YOU
TTITLE6=I GET A KICK OUT OF YOU
TTITLE7=SHOO, SHOO BABY
TTITLE8=SHOULD I?
TTITLE9=YOU DO SOMETHING TO ME
TTITLE10=LOVER
TTITLE11=MOMENTS IN THE MOONLIGHT
TTITLE12=MAKE BELIEVE
TTITLE13=NO LOVE, NO NOTHIN'
EXTD=
EXTT0=
EXTT1=
EXTT2=
EXTT3=
EXTT4=
EXTT5=
EXTT6=
EXTT7=
EXTT8=
EXTT9=
EXTT10=
EXTT11=
EXTT12=
EXTT13=
PLAYORDER=
